# xmcd CD database file
#
# Track frame offsets:
#	150
#	14263
#	22855
#	35594
#	45264
#	58361
#	71148
#	81074
#	99355
#	110558
#	121820
#	136013
#	147741
#	158738
#	173391
#	190703
#	207924
#	230752
#	246561
#	260558
#	271620
#	289832
#	308981
#	328124
#
# Disc length: 4572 seconds
#
# Revision: 0
# Processed by: cddbd v1.5.2PL0 Copyright (c) Steve Scherf et al.
# Submitted via: CDex 1.51
#
DISCID=5511da18
DTITLE=Tony Perkins - Tony Perkins and On A Rainy Afternoon
DYEAR=1900
DGENRE=Jazz
TTITLE0=April Fool (Tony Perkins - 1957)
TTITLE1=Just Friends
TTITLE2=Hit The Road To Dreamland
TTITLE3=This Time The Dream' on Me
TTITLE4=How Long Has This Been Going On ?
TTITLE5=But Beautiful
TTITLE6=Why Shouldn't I ?
TTITLE7=I Wish I Knew
TTITLE8=Accidents Will Happen
TTITLE9=Gone With The Wind
TTITLE10=Better Luck Next Time
TTITLE11=How About You ?
TTITLE12=The World Is Your Balloon (On A Rainy Afternoon - 1958)
TTITLE13=I Remember You
TTITLE14=Why Was I Born ?
TTITLE15=Miss Otis Regrets
TTITLE16=I've Got Sand In My Shoes
TTITLE17=Long Ago And Far Away
TTITLE18=You'd Be So Nice To Come Home To
TTITLE19=Have You Met Miss Jones ?
TTITLE20=You Came Along
TTITLE21=It Could Happen To You
TTITLE22=Darn That Dream
TTITLE23=Back In Your Own Backyard
EXTD=
EXTT0=
EXTT1=
EXTT2=
EXTT3=
EXTT4=
EXTT5=
EXTT6=
EXTT7=
EXTT8=
EXTT9=
EXTT10=
EXTT11=
EXTT12=
EXTT13=
EXTT14=
EXTT15=
EXTT16=
EXTT17=
EXTT18=
EXTT19=
EXTT20=
EXTT21=
EXTT22=
EXTT23=
PLAYORDER=
